<svg class="icon" width="200px" height="200.00px" viewBox="0 0 1024 1024" version="1.1" xmlns="http://www.w3.org/2000/svg"><path fill="#2c2c2c" d="M512.5 146c47.9 0 94.3 9.4 137.9 27.8 42.2 17.8 80.1 43.4 112.7 76 32.6 32.6 58.2 70.5 76 112.7 18.5 43.6 27.8 90 27.8 138s-9.4 94.3-27.8 138c-17.8 42.2-43.4 80.1-76 112.7-32.6 32.6-70.5 58.2-112.7 76-43.6 18.5-90 27.8-137.9 27.8-47.9 0-94.3-9.4-138-27.8-42.2-17.8-80.1-43.4-112.7-76-32.6-32.6-58.2-70.5-76-112.7-18.5-43.6-27.8-90-27.8-138s9.4-94.3 27.8-138c17.8-42.2 43.4-80.1 76-112.7 32.6-32.6 70.5-58.2 112.7-76 43.7-18.4 90.1-27.8 138-27.8m0-120C250.4 26 38 238.4 38 500.5S250.4 975 512.5 975 987 762.6 987 500.5 774.6 26 512.5 26z" /></svg>