<svg class="icon" width="200px" height="200.00px" viewBox="0 0 1024 1024" version="1.1" xmlns="http://www.w3.org/2000/svg"><path fill="#2c2c2c" d="M81.066667 712.533333l384 192c25.6 17.066667 55.466667 17.066667 81.06666599 0l384.00000001-192c0-4.266667 4.266667-8.533333 8.533334-8.533333 4.266667-17.066667 0-34.133333-12.8-38.4L789.333333 597.333333l115.2-59.733333c12.8-8.533333 21.333333-21.333333 21.333334-34.133333 0-12.8-8.533333-29.866667-21.333334-34.133334l-98.133333-51.2 98.13333301-51.2c12.8-8.533333 21.333333-21.333333 21.33333399-34.133333 0-12.8-8.533333-29.866667-21.333334-34.133333l-358.40000001-179.2c-12.8-8.533333-25.6-12.8-38.39999998-12.8-12.8 0-29.866667 4.266667-42.66666601 12.8l-358.4 179.2c-12.8 8.533333-21.333333 21.333333-21.333334 34.133333 0 12.8 8.533333 29.866667 21.33333399 34.133333l98.13333301 51.2-98.133333 51.2c-12.8 8.533333-21.333333 21.333333-21.333334 34.133334 0 12.8 8.533333 29.866667 21.333334 34.133333L217.59999999 597.333333l-136.53333298 68.266667c-4.266667 4.266667-8.533333 4.266667-8.53333401 8.533333-4.266667 17.066667 0 34.133333 8.533334 38.4z m81.066666-379.733333l328.533334-166.4c8.533333-4.266667 17.066667-4.266667 25.6 0l328.533333 166.4-106.666667 55.466667-196.266666-98.133334c-12.8-8.533333-25.6-12.8-38.4-12.79999999-12.8 0-29.866667 4.266667-42.666667 12.79999999l-196.266667 98.133334-102.4-55.466667z m0 170.666667l106.666667-55.466667 64-29.866667 162.133333-81.066666c8.533333-4.266667 17.066667-4.266667 25.6 0L682.666667 418.133333l64 29.866667L853.333333 503.466667l-128 64-183.466666-93.866667c-25.6-17.066667-55.466667-17.066667-81.066667 0l-183.466667 93.866667-115.2-64z" /></svg>