<svg class="icon" width="200px" height="176.55px" viewBox="0 0 1160 1024" version="1.1" xmlns="http://www.w3.org/2000/svg"><path fill="#2c2c2c" d="M75.093333 6.826667h791.893334c40.96 0 68.266667 27.306667 68.266666 68.266666v648.533334c0 40.96-27.306667 68.266667-68.266666 68.266666H75.093333c-40.96 0-68.266667-27.306667-68.266666-68.266666V75.093333c0-34.133333 34.133333-68.266667 68.266666-68.266666z"  /><path fill="#2c2c2c" d="M1044.48 1010.346667H402.773333c-40.96 0-68.266667-27.306667-68.266666-68.266667s27.306667-68.266667 68.266666-68.266667h614.4V402.773333c0-40.96 27.306667-68.266667 68.266667-68.266666s68.266667 27.306667 68.266667 68.266666v498.346667c0 61.44-47.786667 109.226667-109.226667 109.226667z"  /></svg>